# xmcd
# 
# Track frame offsets:
#     150
#     23391
#     64266
#     89135
#     111741
#     150318
#     194070
# 
# Disc length: 3008
# 
# Revision: 7
# Processed by: cddbd v1.5.2PL0 Copyright (c) Steve Scherf et al.
# Submitted via: fre:ac v1.0.31
# 
DISCID=5e0bbe07
DTITLE=Isaac Hayes - Black Moses  Disc 1
DYEAR=1971
DGENRE=R&B
TTITLE0=Never Can Say Goodbye
TTITLE1=(They Long To Be) Close To You
TTITLE2=Nothing Takes The Place Of You
TTITLE3=Man's Temptation
TTITLE4=Part-Time Love
TTITLE5=Medley: Ike's Rap IV | A Brand New Me
TTITLE6=Going In Circles
EXTD=© 1990\nTwo Disc-Set [CD 1 of 2]\nLabel: Stax Records (Fantasy, Inc.]\nSCD 88006-2
EXTT0=
EXTT1=
EXTT2=
EXTT3=
EXTT4=
EXTT5=
EXTT6=
PLAYORDER=
